<svg width="16" height="12" viewBox="0 0 16 12" fill="none" xmlns="http://www.w3.org/2000/svg">
<path d="M15.3333 1.33333H0.666667C0.298665 1.33333 0 1.03467 0 0.666667C0 0.298665 0.298665 0 0.666667 0H15.3333C15.7013 0 16 0.298665 16 0.666667C16 1.03467 15.7013 1.33333 15.3333 1.33333Z" fill="#000000"/>
<path d="M15.3333 6.66659H0.666667C0.298665 6.66659 0 6.36792 0 5.99992C0 5.63192 0.298665 5.33325 0.666667 5.33325H15.3333C15.7013 5.33325 16 5.63192 16 5.99992C16 6.36792 15.7013 6.66659 15.3333 6.66659Z" fill="#000000"/>
<path d="M15.3333 12.0001H0.666667C0.298665 12.0001 0 11.7014 0 11.3334C0 10.9654 0.298665 10.6667 0.666667 10.6667H15.3333C15.7013 10.6667 16 10.9654 16 11.3334C16 11.7014 15.7013 12.0001 15.3333 12.0001Z" fill="#000000"/>
</svg>
