<svg width="16" height="12" viewBox="0 0 16 12" fill="none" xmlns="http://www.w3.org/2000/svg">
<path d="M15.3333 1.33333H0.666667C0.298665 1.33333 0 1.03467 0 0.666667C0 0.298665 0.298665 0 0.666667 0H15.3333C15.7013 0 16 0.298665 16 0.666667C16 1.03467 15.7013 1.33333 15.3333 1.33333Z" fill="#CCCCCC"/>
<path d="M15.3333 6.66683H0.666667C0.298665 6.66683 0 6.36816 0 6.00016C0 5.63216 0.298665 5.3335 0.666667 5.3335H15.3333C15.7013 5.3335 16 5.63216 16 6.00016C16 6.36816 15.7013 6.66683 15.3333 6.66683Z" fill="#CCCCCC"/>
<path d="M15.3333 11.9998H0.666667C0.298665 11.9998 0 11.7012 0 11.3332C0 10.9652 0.298665 10.6665 0.666667 10.6665H15.3333C15.7013 10.6665 16 10.9652 16 11.3332C16 11.7012 15.7013 11.9998 15.3333 11.9998Z" fill="#CCCCCC"/>
</svg>
