<svg width="24" height="20" viewBox="0 0 24 20" fill="none" xmlns="http://www.w3.org/2000/svg">
<path d="M22.8029 18.7144H6.75419C6.09274 18.7144 5.55664 18.1783 5.55664 17.5169C5.55664 16.8554 6.09274 16.3193 6.75419 16.3193H22.8025C23.4639 16.3193 24 16.8554 24 17.5169C24 18.1783 23.4643 18.7144 22.8029 18.7144Z" fill="#9A9999"/>
<path d="M22.8029 11.1976H6.75419C6.09274 11.1976 5.55664 10.6615 5.55664 10C5.55664 9.33859 6.09274 8.80249 6.75419 8.80249H22.8025C23.4639 8.80249 24 9.33859 24 10C24.0004 10.6615 23.4643 11.1976 22.8029 11.1976Z" fill="#9A9999"/>
<path d="M22.8029 3.68049H6.75419C6.09274 3.68049 5.55664 3.14439 5.55664 2.48295C5.55664 1.8215 6.09274 1.2854 6.75419 1.2854H22.8025C23.4639 1.2854 24 1.8215 24 2.48295C24 3.14439 23.4643 3.68049 22.8029 3.68049Z" fill="#9A9999"/>
<path d="M1.6083 4.18389C2.49654 4.18389 3.21661 3.46383 3.21661 2.57559C3.21661 1.68735 2.49654 0.967285 1.6083 0.967285C0.720062 0.967285 0 1.68735 0 2.57559C0 3.46383 0.720062 4.18389 1.6083 4.18389Z" fill="#9A9999"/>
<path d="M1.6083 11.6082C2.49654 11.6082 3.21661 10.8881 3.21661 9.9999C3.21661 9.11166 2.49654 8.3916 1.6083 8.3916C0.720062 8.3916 0 9.11166 0 9.9999C0 10.8881 0.720062 11.6082 1.6083 11.6082Z" fill="#9A9999"/>
<path d="M1.6083 19.0328C2.49654 19.0328 3.21661 18.3127 3.21661 17.4245C3.21661 16.5362 2.49654 15.8162 1.6083 15.8162C0.720062 15.8162 0 16.5362 0 17.4245C0 18.3127 0.720062 19.0328 1.6083 19.0328Z" fill="#9A9999"/>
</svg>
