<svg width="28" height="28" viewBox="0 0 28 28" fill="none" xmlns="http://www.w3.org/2000/svg">
<path d="M6.20539 16.9207L5.23075 20.5592L1.66846 20.6346C0.603859 18.66 0 16.4008 0 14C0 11.6785 0.564594 9.4892 1.56537 7.56152H1.56614L4.73758 8.14296L6.12686 11.2954C5.83609 12.1431 5.6776 13.0531 5.6776 14C5.67771 15.0277 5.86387 16.0123 6.20539 16.9207Z" fill="#AFAFAF"/>
<path d="M27.7553 11.3845C27.9161 12.2314 28 13.106 28 13.9999C28 15.0022 27.8946 15.9799 27.6938 16.923C27.0123 20.1322 25.2315 22.9345 22.7646 24.9176L22.7639 24.9168L18.7693 24.713L18.2039 21.1838C19.8408 20.2238 21.1201 18.7214 21.7939 16.923H14.3077V11.3845H21.9031H27.7553Z" fill="#5F5F5F"/>
<path d="M22.7638 24.9168L22.7646 24.9176C20.3654 26.846 17.3177 27.9999 14 27.9999C8.66846 27.9999 4.03309 25.0199 1.66846 20.6345L6.20539 16.9207C7.38767 20.076 10.4315 22.3222 14 22.3222C15.5338 22.3222 16.9708 21.9076 18.2038 21.1837L22.7638 24.9168Z" fill="#818381"/>
<path d="M22.9362 3.22306L18.4008 6.93612C17.1247 6.13845 15.6162 5.67766 14.0001 5.67766C10.3508 5.67766 7.25003 8.02687 6.12697 11.2954L1.5662 7.56153H1.56543C3.89544 3.06923 8.58927 0 14.0001 0C17.397 0 20.5116 1.21002 22.9362 3.22306Z" fill="#CDCDCD"/>
</svg>
